<?xml version="1.0" encoding="utf-8"?>
<!-- Generator: Adobe Illustrator 16.0.0, SVG Export Plug-In . SVG Version: 6.00 Build 0)  -->
<!DOCTYPE svg PUBLIC "-//W3C//DTD SVG 1.1//EN" "http://www.w3.org/Graphics/SVG/1.1/DTD/svg11.dtd">
<svg version="1.1" id="Layer_1" xmlns="http://www.w3.org/2000/svg" xmlns:xlink="http://www.w3.org/1999/xlink" x="0px" y="0px"
	 width="8px" height="8px" viewBox="0 0 8 8" enable-background="new 0 0 8 8" xml:space="preserve">
<path fill="#FFFFFF" d="M3,0C2.45,0,2,0.45,2,1H1C0.45,1,0,1.45,0,2h7c0-0.55-0.45-1-1-1H5c0-0.55-0.45-1-1-1H3z M1,3v4.811
	C1,7.92,1.08,8,1.19,8h4.63C5.93,8,6.01,7.92,6.01,7.811V3h-1v3.5c0,0.28-0.22,0.5-0.5,0.5c-0.28,0-0.5-0.22-0.5-0.5V3h-1v3.5
	c0,0.28-0.22,0.5-0.5,0.5c-0.28,0-0.5-0.22-0.5-0.5V3h-1H1z"/>
</svg>
